#Comment line ignore any data following # character 
#Hierarchical Translation and Rotation (.htr) file 
[Header]	
#Header keywords are followed by a single value 
FileType HTR		#Single word string
DataType HTRS		#Translation followed by rotation and scale data
FileVersion 1		#integer
NumSegments 25		#integer
NumFrames 4		#integer
DataFrameRate 30		#integer, data frame rate in this file
EulerRotationOrder ZYX
CalibrationUnits mm
RotationUnits Degrees
GlobalAxisofGravity Y
BoneLengthAxis Y
ScaleFactor 1.00
[SegmentNames&Hierarchy]
#CHILD	PARENT
BN_Tick_Root GLOBAL
BN_Torso BN_Tick_Root
BN_L_Leg_Front01 BN_Torso
BN_L_Leg_Rear01 BN_Torso
BN_MetalTop BN_Torso
BN_Neck BN_Torso
BN_R_Leg_Front01 BN_Torso
BN_R_Leg_Rear01 BN_Torso
BN_Sack BN_Torso
BN_L_Leg_Front02 BN_L_Leg_Front01
BN_L_Leg_Front03 BN_L_Leg_Front02
BN_L_Leg_Rear02 BN_L_Leg_Rear01
BN_L_Leg_Rear03 BN_L_Leg_Rear02
BN_Head BN_Neck
BN_Needle BN_Head
BN_R_Leg_Front02 BN_R_Leg_Front01
BN_R_Leg_Front03 BN_R_Leg_Front02
BN_R_Leg_Rear02 BN_R_Leg_Rear01
BN_R_Leg_Rear03 BN_R_Leg_Rear02
BN_SackDef01 BN_Sack
BN_SackDef02 BN_Sack
BN_SackDef03 BN_Sack
BN_SackDef04 BN_Sack
BN_SackDef05 BN_Sack
BN_SackDef06 BN_Sack
[BasePosition]
#SegmentName Tx, Ty, Tz, Rx, Ry, Rz, BoneLength
BN_Tick_Root 0.000000 0.000000 0.000000 -90.000000 0.000000 0.000000 10.000000 
BN_Torso 0.000000 0.000000 0.000000 0.000000 0.000000 0.000000 10.000000 
BN_L_Leg_Front01 0.000000 0.000000 0.000000 0.000000 0.000000 0.000000 10.000000 
BN_L_Leg_Rear01 0.000000 0.000000 0.000000 0.000000 0.000000 0.000000 10.000000 
BN_MetalTop 0.000000 0.000000 0.000000 0.000000 0.000000 0.000000 10.000000 
BN_Neck 0.000000 0.000000 0.000000 0.000000 0.000000 0.000000 10.000000 
BN_R_Leg_Front01 0.000000 0.000000 0.000000 0.000000 0.000000 0.000000 10.000000 
BN_R_Leg_Rear01 0.000000 0.000000 0.000000 0.000000 0.000000 0.000000 10.000000 
BN_Sack 0.000000 0.000000 0.000000 0.000000 0.000000 0.000000 10.000000 
BN_L_Leg_Front02 0.000000 0.000000 0.000000 0.000000 0.000000 0.000000 10.000000 
BN_L_Leg_Front03 0.000000 0.000000 0.000000 0.000000 0.000000 0.000000 10.000000 
BN_L_Leg_Rear02 0.000000 0.000000 0.000000 0.000000 0.000000 0.000000 10.000000 
BN_L_Leg_Rear03 0.000000 0.000000 0.000000 0.000000 0.000000 0.000000 10.000000 
BN_Head 0.000000 0.000000 0.000000 0.000000 0.000000 0.000000 10.000000 
BN_Needle 0.000000 0.000000 0.000000 0.000000 0.000000 0.000000 10.000000 
BN_R_Leg_Front02 0.000000 0.000000 0.000000 0.000000 0.000000 0.000000 10.000000 
BN_R_Leg_Front03 0.000000 0.000000 0.000000 0.000000 0.000000 0.000000 10.000000 
BN_R_Leg_Rear02 0.000000 0.000000 0.000000 0.000000 0.000000 0.000000 10.000000 
BN_R_Leg_Rear03 0.000000 0.000000 0.000000 0.000000 0.000000 0.000000 10.000000 
BN_SackDef01 0.000000 0.000000 0.000000 0.000000 0.000000 0.000000 10.000000 
BN_SackDef02 0.000000 0.000000 0.000000 0.000000 0.000000 0.000000 10.000000 
BN_SackDef03 0.000000 0.000000 0.000000 0.000000 0.000000 0.000000 10.000000 
BN_SackDef04 0.000000 0.000000 0.000000 0.000000 0.000000 0.000000 10.000000 
BN_SackDef05 0.000000 0.000000 0.000000 0.000000 0.000000 0.000000 10.000000 
BN_SackDef06 0.000000 0.000000 0.000000 0.000000 0.000000 0.000000 10.000000 
#Beginning of Data. Separated by tabs
#Fr	Tx	Ty	Tz	Rx	Ry	Rz	SF
[BN_Tick_Root]
157 -184.224655 639.207764 802.073608 0.000000 0.000000 -27.324081 1042.040039
158 -143.506821 673.695313 810.216492 0.000000 0.000000 -27.324076 1063.442749
159 -98.189995 712.781982 818.359314 0.000000 0.000000 -27.324070 1089.683960
160 -51.417652 754.119690 825.462341 0.000000 0.000000 -27.324064 1119.253540
[BN_Torso]
157 39.157078 -92.792000 181.911148 87.972046 3.821992 6.634304 207.930984
158 67.570282 -64.411743 221.546280 78.850525 8.582878 12.704881 240.410828
159 90.884583 -23.897673 244.875259 69.892799 14.976562 18.267513 262.287994
160 103.498642 18.130039 247.173859 62.128967 22.134689 22.625154 268.580688
[BN_L_Leg_Front01]
157 -68.477791 10.734189 -26.804373 38.434395 72.020927 -178.962494 74.316254
158 -68.477791 10.734189 -26.804373 37.027519 72.742508 177.646774 74.316254
159 -68.477791 10.734189 -26.804373 33.871788 72.848511 177.012421 74.316254
160 -68.477791 10.734189 -26.804373 29.161394 72.257286 -177.704086 74.316254
[BN_L_Leg_Rear01]
157 -72.133743 -73.994843 -18.268616 99.864960 68.517296 -109.610123 104.939293
158 -72.133743 -73.994843 -18.268616 100.977127 69.565002 -109.053520 104.939293
159 -72.133743 -73.994843 -18.268616 100.126808 69.353424 -109.568199 104.939293
160 -72.133743 -73.994843 -18.268616 97.593552 68.001541 -110.759033 104.939293
[BN_MetalTop]
157 0.000008 13.737477 26.403606 90.000008 -12.928561 -89.999992 29.763546
158 0.000008 13.737477 26.403606 90.000008 -12.928561 -89.999992 29.763546
159 0.000008 13.737477 26.403606 90.000008 -12.928561 -89.999992 29.763546
160 0.000008 13.737477 26.403606 90.000008 -12.928561 -89.999992 29.763546
[BN_Neck]
157 0.000014 95.233284 10.002091 -90.006325 -64.767769 90.008736 95.757088
158 0.000014 95.233284 10.002091 -90.000443 -41.887707 89.999176 95.757088
159 0.000014 95.233284 10.002091 -90.000443 -41.887707 89.999176 95.757088
160 0.000014 95.233284 10.002091 -90.000443 -41.887707 89.999176 95.757088
[BN_R_Leg_Front01]
157 68.477768 10.734107 -26.804314 -59.752483 74.214798 -102.280678 74.316193
158 68.477768 10.734107 -26.804314 -57.077164 74.727203 -101.195641 74.316193
159 68.477768 10.734107 -26.804314 -55.503021 75.923958 -102.663330 74.316193
160 68.477768 10.734107 -26.804314 -58.141865 77.575966 -110.174736 74.316193
[BN_R_Leg_Rear01]
157 72.133751 -73.994873 -18.268644 -64.065620 78.817581 -46.952995 104.939331
158 72.133751 -73.994873 -18.268644 -61.144497 78.670792 -44.580723 104.939331
159 72.133751 -73.994873 -18.268644 -57.028904 77.898361 -43.511677 104.939331
160 72.133751 -73.994873 -18.268644 -54.272491 76.750084 -45.491726 104.939331
[BN_Sack]
157 -0.000000 -78.024918 33.657791 89.997787 27.064466 -90.003563 84.974907
158 -0.000000 -78.024918 33.657791 90.000977 22.690804 -90.000389 84.974907
159 -0.000000 -78.024918 33.657791 89.999794 18.190859 -90.001610 84.974907
160 -0.000000 -78.024918 33.657791 89.998749 13.690981 -90.002731 84.974907
[BN_L_Leg_Front02]
157 142.805023 -0.000015 -0.000104 0.149888 0.419227 -104.857384 142.805023
158 142.805023 -0.000015 -0.000104 0.151461 0.418669 -104.427132 142.805023
159 142.805023 -0.000015 -0.000104 0.128766 0.475128 -110.133934 142.805023
160 142.805023 -0.000015 -0.000104 0.074492 0.601202 -122.099854 142.805023
[BN_L_Leg_Front03]
157 124.143021 -0.000045 0.000007 0.352173 -0.409976 113.749710 124.143021
158 124.143021 -0.000045 0.000007 0.356475 -0.412738 113.307121 124.143021
159 124.143021 -0.000045 0.000007 0.352856 -0.391018 118.990105 124.143021
160 124.143021 -0.000045 0.000007 0.350235 -0.345350 129.584808 124.143021
[BN_L_Leg_Rear02]
157 139.939041 0.000075 -0.000022 0.019179 -0.243443 113.716164 139.939041
158 139.939041 0.000075 -0.000022 0.019996 -0.243377 113.331490 139.939041
159 139.939041 0.000075 -0.000022 0.029269 -0.240092 110.880707 139.939041
160 139.939041 0.000075 -0.000022 0.047789 -0.257324 105.837982 139.939041
[BN_L_Leg_Rear03]
157 142.839615 0.000179 -0.000060 0.000849 -0.002188 -132.386322 142.839615
158 142.839615 0.000179 -0.000060 0.000842 -0.002191 -132.056091 142.839615
159 142.839615 0.000179 -0.000060 0.000801 -0.002206 -129.892319 142.839615
160 142.839615 0.000179 -0.000060 0.000709 -0.002237 -125.166977 142.839615
[BN_Head]
157 57.062447 -0.000030 0.000000 0.002182 0.000864 46.809483 57.062447
158 57.062447 -0.000030 0.000000 0.001962 0.001289 23.408854 57.062447
159 57.062447 -0.000030 0.000000 0.001962 0.001289 23.408854 57.062447
160 57.062447 -0.000030 0.000000 0.001962 0.001289 23.408854 57.062447
[BN_Needle]
157 35.044014 100.418365 -0.000029 0.000003 0.000030 87.896805 106.357567
158 38.248978 187.688828 -0.000019 0.000003 0.000030 87.896805 191.546555
159 38.248966 187.688843 -0.000012 0.000003 0.000030 87.896805 191.546570
160 38.248959 187.688843 -0.000005 0.000003 0.000030 87.896805 191.546570
[BN_R_Leg_Front02]
157 142.804947 -0.000060 0.000060 -0.202175 0.164244 79.625519 142.804947
158 142.804947 -0.000060 0.000060 -0.202117 0.148702 78.702545 142.804947
159 142.804947 -0.000060 0.000060 -0.200334 0.218279 84.686378 142.804947
160 142.804947 -0.000060 0.000060 -0.172151 0.347144 97.160080 142.804947
[BN_R_Leg_Front03]
157 124.143005 -0.000060 -0.000156 -0.353002 -0.448182 -83.919258 124.143005
158 124.143005 -0.000060 -0.000156 -0.350787 -0.444826 -82.696068 124.143005
159 124.143005 -0.000060 -0.000156 -0.351266 -0.448021 -90.501999 124.143005
160 124.143005 -0.000060 -0.000156 -0.350862 -0.431154 -105.459213 124.143005
[BN_R_Leg_Rear02]
157 139.939011 -0.000149 0.000015 -0.036086 -0.238401 -108.251930 139.939011
158 139.939011 -0.000149 0.000015 -0.042922 -0.235005 -106.873077 139.939011
159 139.939011 -0.000149 0.000015 -0.035207 -0.238536 -108.673439 139.939011
160 139.939011 -0.000149 0.000015 -0.021297 -0.260306 -113.309189 139.939011
[BN_R_Leg_Rear03]
157 142.839417 0.000075 0.000119 0.002223 -0.000754 127.480469 142.839417
158 142.839417 0.000075 0.000119 0.002231 -0.000729 126.164635 142.839417
159 142.839417 0.000075 0.000119 0.002220 -0.000762 127.867020 142.839417
160 142.839417 0.000075 0.000119 0.002191 -0.000842 132.033600 142.839417
[BN_SackDef01]
157 249.782272 -3.760844 42.949425 -128.408218 -44.374973 -11.740845 253.475800
158 249.782272 -3.760844 42.949425 -128.408218 -44.374973 -11.740845 253.475800
159 249.782272 -3.760844 42.949425 -128.408218 -44.374973 -11.740845 253.475800
160 249.782272 -3.760844 42.949425 -128.408218 -44.374973 -11.740845 253.475800
[BN_SackDef02]
157 138.789795 -62.131748 45.674385 32.077126 -27.375721 -88.781525 158.773758
158 138.789795 -62.131748 45.674385 32.077126 -27.375721 -88.781525 158.773758
159 138.789795 -62.131748 45.674385 32.077126 -27.375721 -88.781525 158.773758
160 138.789795 -62.131748 45.674385 32.077126 -27.375721 -88.781525 158.773758
[BN_SackDef03]
157 249.782272 -3.760785 -42.949661 18.144459 44.375008 -11.740894 253.475845
158 249.782272 -3.760785 -42.949661 18.144459 44.375008 -11.740894 253.475845
159 249.782272 -3.760785 -42.949661 18.144459 44.375008 -11.740894 253.475845
160 249.782272 -3.760785 -42.949661 18.144459 44.375008 -11.740894 253.475845
[BN_SackDef04]
157 138.789780 -62.131645 -45.674473 146.059982 27.375723 -88.781555 158.773743
158 138.789780 -62.131645 -45.674473 146.059982 27.375723 -88.781555 158.773743
159 138.789780 -62.131645 -45.674473 146.059982 27.375723 -88.781555 158.773743
160 138.789780 -62.131645 -45.674473 146.059982 27.375723 -88.781555 158.773743
[BN_SackDef05]
157 118.790161 46.167137 -63.831196 0.155741 51.314110 90.605110 142.537460
158 118.790161 46.167137 -63.831196 0.155741 51.314110 90.605110 142.537460
159 118.790161 46.167137 -63.831196 0.155741 51.314110 90.605110 142.537460
160 118.790161 46.167137 -63.831196 0.155741 51.314110 90.605110 142.537460
[BN_SackDef06]
157 118.790207 46.167194 63.831219 152.058487 -51.314072 90.605019 142.537537
158 118.790207 46.167194 63.831219 152.058487 -51.314072 90.605019 142.537537
159 118.790207 46.167194 63.831219 152.058487 -51.314072 90.605019 142.537537
160 118.790207 46.167194 63.831219 152.058487 -51.314072 90.605019 142.537537
